<?xml version="1.0" standalone="no"?>
<!DOCTYPE svg PUBLIC "-//W3C//DTD SVG 20010904//EN"
 "http://www.w3.org/TR/2001/REC-SVG-20010904/DTD/svg10.dtd">
<svg version="1.0" xmlns="http://www.w3.org/2000/svg"
 width="260.000000pt" height="260.000000pt" viewBox="0 0 260.000000 260.000000"
 preserveAspectRatio="xMidYMid meet">
<metadata>
Created by potrace 1.11, written by Peter Selinger 2001-2013
</metadata>
<g transform="translate(0.000000,260.000000) scale(0.100000,-0.100000)"
fill="#000000" stroke="none">
<path d="M0 1300 l0 -1300 1300 0 1300 0 0 1300 0 1300 -1300 0 -1300 0 0
-1300z m873 635 c168 -29 260 -81 312 -176 59 -109 31 -249 -66 -333 -40 -34
-130 -75 -167 -77 -9 0 20 -11 66 -25 141 -41 201 -82 248 -166 27 -49 29 -61
29 -153 0 -89 -3 -106 -28 -156 -51 -105 -154 -180 -305 -221 -70 -20 -109
-22 -414 -26 l-338 -4 0 676 0 676 289 0 c211 0 311 -4 374 -15z m1127 1 c190
-35 299 -121 336 -268 19 -73 14 -177 -11 -250 -30 -87 -129 -177 -232 -214
-29 -10 -53 -21 -53 -24 0 -3 81 -133 180 -290 l180 -285 -122 -3 c-67 -1
-127 -1 -133 1 -5 3 -84 127 -175 276 l-165 271 -122 0 -123 0 0 -275 0 -275
-115 0 -115 0 0 675 0 675 298 0 c205 -1 320 -5 372 -14z"/>
<path d="M450 1599 l0 -181 178 4 c206 5 251 17 307 79 34 38 42 65 36 128
-10 105 -137 151 -418 151 l-103 0 0 -181z"/>
<path d="M450 1006 l0 -236 118 0 c289 0 422 44 473 155 38 83 13 199 -53 246
-66 47 -140 61 -345 67 l-193 4 0 -236z"/>
<path d="M1560 1555 l0 -225 144 0 c168 0 231 10 306 48 45 22 59 37 83 82 25
48 28 63 24 117 -3 39 -13 75 -26 97 -46 73 -173 106 -413 106 l-118 0 0 -225z"/>
</g>
</svg>
